<?xml version="1.0" encoding="utf-8"?>
<!-- Generator: Adobe Illustrator 24.0.2, SVG Export Plug-In . SVG Version: 6.00 Build 0)  -->
<svg version="1.0" id="Layer_1" xmlns="http://www.w3.org/2000/svg" xmlns:xlink="http://www.w3.org/1999/xlink" x="0px" y="0px"
	 viewBox="0 0 288 41.6" style="enable-background:new 0 0 288 41.6;" xml:space="preserve">
<style type="text/css">
	.st0{fill:#B1C3D6;}
</style>
<g>
	<path class="st0" d="M45.2,8.2v25.2h-5.8V8.2H45.2z"/>
</g>
<g>
	<path class="st0" d="M68.4,28.7h-9.5L57,33.4h-6.1L61.1,8.2h5.3l9.9,25.2h-6.1L68.4,28.7z M66.8,24.2l-3.1-8.5l-3.1,8.5H66.8z"/>
</g>
<g>
	<path class="st0" d="M82,33.4V8.2h5.1l13.7,16.3V8.2h5.8v25.2h-5.1L87.8,17.1v16.3H82z"/>
</g>
<g>
	<path class="st0" d="M124.7,13.1v20.3h-5.8V13.1h-5.5V8.2h16.8v4.9H124.7z"/>
</g>
<g>
	<path class="st0" d="M162.9,14.4c-1.9-1.7-3.5-1.8-4.2-1.8c-0.8,0-1.8,0.1-2.5,0.9c-0.4,0.4-0.6,0.9-0.6,1.6c0,0.6,0.2,1.1,0.6,1.4
		c0.6,0.6,1.5,0.8,3.2,1.4l1.9,0.7c1.1,0.4,2.5,1,3.4,1.9c1.5,1.4,1.9,3.2,1.9,4.7c0,2.6-0.9,4.9-2.2,6.2c-2.2,2.3-5.5,2.6-7.1,2.6
		c-1.8,0-3.4-0.3-5-1.1c-1.3-0.6-2.8-1.8-3.7-2.8l3-4.2c0.6,0.6,1.7,1.5,2.3,1.9c1,0.6,2,0.9,3.2,0.9c0.8,0,1.8-0.2,2.6-0.9
		c0.5-0.4,0.9-1.1,0.9-2c0-0.8-0.3-1.4-0.9-1.8c-0.7-0.6-2.2-1.1-3-1.4l-2.1-0.7c-1.2-0.4-2.5-0.9-3.5-2c-1.3-1.4-1.5-3.2-1.5-4.4
		c0-2.2,0.7-4.1,2.2-5.7c1.8-1.8,3.9-2.3,6.2-2.3c1.7,0,4.5,0.3,7.5,2.5L162.9,14.4z"/>
</g>
<g>
	<path class="st0" d="M182.3,8.2c2.2,0,4.6,0.3,6.6,2.1c2.2,1.9,2.5,4.4,2.5,6.1c0,3.2-1.2,5-2.2,5.9c-2,2-4.7,2.2-6.4,2.2h-3.6v8.8
		h-5.8V8.2H182.3z M179.3,19.8h2.1c0.8,0,2.2,0,3.1-0.9c0.5-0.5,0.9-1.4,0.9-2.5c0-1.1-0.4-1.9-0.9-2.5c-0.9-0.8-2.1-0.9-3.3-0.9h-2
		V19.8z"/>
</g>
<g>
	<path class="st0" d="M258.9,33.4V8.2h5.1l13.7,16.3V8.2h5.8v25.2h-5.1l-13.7-16.3v16.3H258.9z"/>
</g>
<g>
	<path class="st0" d="M209,7.6c-7.3,0-13.2,5.9-13.2,13.2S201.7,34,209,34s13.2-5.9,13.2-13.2S216.2,7.6,209,7.6z M209,28.6
		c-4.3,0-7.8-3.5-7.8-7.8s3.5-7.8,7.8-7.8s7.8,3.5,7.8,7.8S213.3,28.6,209,28.6z"/>
</g>
<g>
	<g>
		<path class="st0" d="M239.3,7.6c-7.3,0-13.2,5.9-13.2,13.2S232,34,239.3,34s13.2-5.9,13.2-13.2S246.6,7.6,239.3,7.6z M239.3,28.6
			c-4.3,0-7.8-3.5-7.8-7.8s3.5-7.8,7.8-7.8s7.8,3.5,7.8,7.8S243.6,28.6,239.3,28.6z"/>
	</g>
</g>
<g>
	<path class="st0" d="M19.6,19.7v4.7h6.2c-0.5,1.5-2.1,2.7-3.5,3.4c-1,0.5-2.2,0.8-3.4,0.8c-4.3,0-7.8-3.5-7.8-7.8
		c0-4.3,3.5-7.8,7.8-7.8c1.2,0,2.3,0.3,3.3,0.8c1.5,0.7,2.7,1.8,3.5,3.2l4.7-2.6c-0.1-0.2-0.3-0.5-0.4-0.7c-2.3-3.6-6.3-6-10.9-6.1
		c-0.1,0-0.1,0-0.2,0c-7.3,0-13.2,5.9-13.2,13.2c0,7.3,5.9,13.2,13.2,13.2c0,0,0.1,0,0.1,0c0.1,0,0.2,0,0.2,0l0.1,0
		c0.1-0.1,2.2-0.2,2.6-0.3c0.8-0.2,1.7-0.5,2.5-0.8c1.6-0.7,3-1.7,4.1-3c1.2-1.3,2-2.8,2.6-4.4c0.6-1.8,0.6-3.7,0.6-5.6H19.6z"/>
</g>
<g>
	<path class="st0" d="M19.6,19.7v4.7h6.2c-0.5,1.5-3,4.2-6.9,4.2c-4.3,0-7.8-3.5-7.8-7.8c0-4.3,3.5-7.8,7.8-7.8c3.7,0,6,2.6,6.8,4
		l4.7-2.6c0,0-3.6-6.8-11.4-6.8c-7.6,0-13.3,5.9-13.3,13.2c0,7.3,6.1,13.2,13.2,13.2c8.7,0,11.7-7,12.2-8.6c0.6-1.8,0.6-3.7,0.6-5.6
		H19.6z"/>
</g>
</svg>
