<?xml version="1.0" encoding="utf-8"?>
<!-- Generator: Adobe Illustrator 24.0.2, SVG Export Plug-In . SVG Version: 6.00 Build 0)  -->
<svg version="1.1" id="Layer_1" xmlns="http://www.w3.org/2000/svg" xmlns:xlink="http://www.w3.org/1999/xlink" x="0px" y="0px"
	 viewBox="0 0 36 36" style="enable-background:new 0 0 36 36;" xml:space="preserve">
<style type="text/css">
	.st0{fill:#FFFCF2;}
</style>
<g>
	<path class="st0" d="M18,1.8c8.9,0,16.2,7.3,16.2,16.2S26.9,34.2,18,34.2S1.8,26.9,1.8,18S9.1,1.8,18,1.8 M18,0C8.1,0,0,8.1,0,18
		s8.1,18,18,18s18-8.1,18-18S27.9,0,18,0L18,0z"/>
	<path class="st0" d="M17,11.5l-5.1,3.8H8.8c-0.7,0-1.2,0.5-1.2,1.2v3c0,0.7,0.5,1.2,1.2,1.2h3.1l5.1,3.8V11.5z"/>
	<g>
		<path class="st0" d="M23.2,18c0,1.4-0.6,2.8-1.5,3.7l1.1,1.1c1.2-1.2,2-2.9,2-4.8c0-1.9-0.8-3.5-2-4.8l-1.1,1.1
			C22.6,15.2,23.2,16.6,23.2,18z"/>
		<path class="st0" d="M24.9,11.1l-1.1,1.1c1.5,1.5,2.4,3.6,2.4,5.8s-0.9,4.3-2.4,5.8l1.1,1.1c1.8-1.8,2.9-4.2,2.9-6.9
			S26.6,12.9,24.9,11.1z"/>
		<path class="st0" d="M20.2,18c0,0.6-0.3,1.2-0.7,1.6l1.1,1.1c0.7-0.7,1.1-1.6,1.1-2.7c0-1-0.4-2-1.1-2.7l-1.1,1.1
			C20,16.8,20.2,17.4,20.2,18z"/>
	</g>
</g>
</svg>
