<?xml version="1.0" encoding="utf-8"?>
<!-- Generator: Adobe Illustrator 24.0.2, SVG Export Plug-In . SVG Version: 6.00 Build 0)  -->
<svg version="1.1" id="Layer_1" xmlns="http://www.w3.org/2000/svg" xmlns:xlink="http://www.w3.org/1999/xlink" x="0px" y="0px"
	 viewBox="0 0 36 36" style="enable-background:new 0 0 36 36;" xml:space="preserve">
<style type="text/css">
	.st0{fill:#FFFCF2;}
</style>
<g>
	<path class="st0" d="M17.9,2c8.8,0,16,7.2,16,16c0,8.8-7.2,16-16,16s-16-7.2-16-16C1.9,9.2,9.1,2,17.9,2 M17.9,0.2
		C8.1,0.2,0.2,8.2,0.2,18s8,17.8,17.8,17.8s17.8-8,17.8-17.8S27.8,0.2,17.9,0.2L17.9,0.2z"/>
	<polygon class="st0" points="28.2,14.6 27.2,13.5 23.7,16.9 20.3,13.5 19.3,14.6 22.7,18 19.3,21.4 20.3,22.5 23.7,19.1 27.2,22.5 
		28.2,21.4 24.8,18 	"/>
	<path class="st0" d="M17,11.5l-5.1,3.8H8.8c-0.7,0-1.2,0.5-1.2,1.2v3c0,0.7,0.5,1.2,1.2,1.2h3.1l5.1,3.8V11.5z"/>
</g>
</svg>
